<!DOCTYPE svg PUBLIC "-//W3C//DTD SVG 1.1//EN" "http://www.w3.org/Graphics/SVG/1.1/DTD/svg11.dtd">
<!-- Uploaded to: SVG Repo, www.svgrepo.com, Transformed by: SVG Repo Mixer Tools -->
<svg width="800px" height="800px" viewBox="0 0 24 24" xmlns="http://www.w3.org/2000/svg" fill="none" stroke="#000000" stroke-width="1" stroke-linecap="round" stroke-linejoin="miter">
<g id="SVGRepo_bgCarrier" stroke-width="0"/>
<g id="SVGRepo_tracerCarrier" stroke-linecap="round" stroke-linejoin="round" stroke="#CCCCCC" stroke-width="2.64">
<path d="M12,2,3,5v5.11a11,11,0,0,0,4.9,9.16L12,22l4.1-2.73A11,11,0,0,0,21,10.11V5Z" fill="#1c274c" opacity="0.1" stroke-width="0"/>
<path d="M12,2,3,5v5.11a11,11,0,0,0,4.9,9.16L12,22l4.1-2.73A11,11,0,0,0,21,10.11V5Z"/>
</g>
<g id="SVGRepo_iconCarrier">
<path d="M12,2,3,5v5.11a11,11,0,0,0,4.9,9.16L12,22l4.1-2.73A11,11,0,0,0,21,10.11V5Z" fill="#1c274c" opacity="0.1" stroke-width="0"/>
<path d="M12,2,3,5v5.11a11,11,0,0,0,4.9,9.16L12,22l4.1-2.73A11,11,0,0,0,21,10.11V5Z"/>
</g>
</svg>